<svg width="1975" height="858" viewBox="0 0 1975 858" fill="none" xmlns="http://www.w3.org/2000/svg">
<path d="M6 0H1926V603C1926 603 1427 900 931.5 603C436 306 6 603 6 603V0Z" fill="#F7C948"/>
<path d="M1097.5 696.5L1316 768.5C1270.2 784.869 398.641 778.43 254.844 756.605C111.046 734.78 0 756.605 0 756.605V636.567C0 636.567 128.18 556.541 254.844 636.567C381.508 716.592 1097.5 696.5 1097.5 696.5Z" fill="#F9E59D"/>
<ellipse cx="1145.19" cy="504.279" rx="162.192" ry="157.279" fill="#0BD7B2"/>
<ellipse cx="1084.19" cy="311.279" rx="162.192" ry="157.279" fill="#0BD7B2"/>
<ellipse cx="1263.19" cy="271.279" rx="162.192" ry="157.279" fill="#0BD7B2"/>
<ellipse cx="1534.19" cy="240.279" rx="162.192" ry="157.279" fill="#0BD7B2"/>
<ellipse cx="1696.19" cy="281.279" rx="162.192" ry="157.279" fill="#0BD7B2"/>
<ellipse cx="1812.19" cy="497.279" rx="162.192" ry="157.279" fill="#0BD7B2"/>
<ellipse cx="1709.19" cy="666.279" rx="162.192" ry="157.279" fill="#0BD7B2"/>
<ellipse cx="1567.19" cy="700.279" rx="162.192" ry="157.279" fill="#0BD7B2"/>
<ellipse cx="1316.19" cy="700.279" rx="162.192" ry="157.279" fill="#0BD7B2"/>
<ellipse cx="1084.19" cy="655.279" rx="162.192" ry="157.279" fill="#0BD7B2"/>
<ellipse cx="1420.07" cy="468.983" rx="162.192" ry="157.279" fill="#0BD7B2"/>
</svg>
