<svg width="1920" height="678" viewBox="0 0 1920 678" fill="none" xmlns="http://www.w3.org/2000/svg">
<path d="M0 -22H1924V427.584C1924 427.584 1423.96 649.02 927.428 427.584C430.896 206.147 0 427.584 0 427.584V-22Z" fill="#F7C948"/>
<path d="M1053.31 532.426L1265 602.108C1220.63 617.95 376.222 611.718 236.904 590.596C97.5868 569.474 -10 590.596 -10 590.596V474.422C-10 474.422 114.186 396.973 236.904 474.422C359.622 551.871 1053.31 532.426 1053.31 532.426Z" fill="#F9E59D"/>
<ellipse cx="1222.75" cy="411.63" rx="121.902" ry="118.21" fill="#0BD7B2"/>
<ellipse cx="1176.9" cy="266.573" rx="121.902" ry="118.21" fill="#0BD7B2"/>
<ellipse cx="1311.44" cy="236.509" rx="121.902" ry="118.21" fill="#0BD7B2"/>
<ellipse cx="1515.12" cy="213.21" rx="121.902" ry="118.21" fill="#0BD7B2"/>
<ellipse cx="1636.88" cy="244.025" rx="121.902" ry="118.21" fill="#0BD7B2"/>
<ellipse cx="1724.06" cy="406.369" rx="121.902" ry="118.21" fill="#0BD7B2"/>
<ellipse cx="1587.27" cy="391.337" rx="121.902" ry="118.21" fill="#0BD7B2"/>
<ellipse cx="1646.65" cy="533.388" rx="121.902" ry="118.21" fill="#0BD7B2"/>
<ellipse cx="1539.92" cy="558.942" rx="121.902" ry="118.21" fill="#0BD7B2"/>
<ellipse cx="1351.27" cy="558.942" rx="121.902" ry="118.21" fill="#0BD7B2"/>
<ellipse cx="1176.9" cy="525.12" rx="121.902" ry="118.21" fill="#0BD7B2"/>
<ellipse cx="1429.35" cy="385.103" rx="121.902" ry="118.21" fill="#0BD7B2"/>
</svg>
