<svg width="291" height="262" viewBox="0 0 291 262" fill="none" xmlns="http://www.w3.org/2000/svg">
<path d="M152.484 55.311L159.08 127.118L158.304 104.8V117.997L159.08 127.118H179.644V152.154H161.408L165.094 192.133L219.802 206.883L274.51 192.133L287.12 55.311H152.484ZM259.96 99.5599L219.802 116.833H258.796L254.14 168.068L219.802 178.16L185.27 167.874L183.136 142.062H200.208L201.372 155.453L219.802 160.111H219.996L239.008 154.677L240.366 133.135H219.996L182.166 132.941L180.42 117.027L219.608 100.724L221.936 99.754H179.062L177.122 83.2577H261.706L259.96 99.5599V99.5599Z" fill="white"/>
<path d="M152.289 133.135V110.816H138.709V133.135H117.369V146.138H138.709V168.845H152.289V146.138H173.629V133.135H152.289Z" fill="white"/>
<path d="M130.369 127.118L136.771 55.6992H3.88086L15.9089 191.551L70.2289 206.689L124.743 191.551L128.235 152.542H111.357V127.313H130.369V127.118ZM110.775 96.2607L110.387 99.9481H46.7549L48.3069 117.027H109.029L108.641 121.49L104.761 165.351L104.567 168.262L70.4229 177.772L36.2789 168.262L33.9509 142.256H50.6349L51.7989 155.453L70.4229 160.499L89.0469 155.453L90.9869 133.911H33.1749L29.1009 87.7214L28.7129 83.2577H112.133L111.745 87.7214L110.775 96.2607V96.2607Z" fill="white"/>
</svg>
