<svg width="247" height="222" viewBox="0 0 247 222" fill="none" xmlns="http://www.w3.org/2000/svg">
<path d="M108.334 135.058C108.334 149.793 104.727 161.041 97.515 168.802C90.3026 176.564 80.0713 180.445 66.8212 180.445C44.3826 180.445 30.4298 167.405 24.9629 141.324L48.856 134.088C51.7651 146.871 57.6931 153.262 66.64 153.262C77.9142 153.262 83.5513 146.937 83.5513 134.285V42.5418H108.251V135.058H108.334ZM222.019 137.213C222.019 150.642 217.31 161.468 207.891 169.69C199.149 177.263 187.894 181.309 176.324 181.037C149.978 181.037 133.588 167.213 127.155 139.564L150.702 134.285C154.073 147.715 162.619 154.43 176.341 154.43C181.252 154.528 186.071 153.09 190.124 150.319C192.317 148.905 194.11 146.953 195.332 144.65C196.555 142.347 197.165 139.769 197.105 137.163C197.105 130.772 191.408 125.882 180.013 122.495C161.988 117.013 151.35 113.297 148.101 111.345C136.695 104.724 130.992 94.3692 130.992 80.2818C130.992 67.7621 135.35 57.8955 144.066 50.6818C152.234 44.0683 162.504 40.5969 173.015 40.8974C184.179 40.8974 193.362 43.375 200.563 48.3303C207.765 53.2855 213.753 61.2392 218.529 72.1912L197.122 83.3405C194.213 77.4753 190.958 73.271 187.357 70.7276C183.106 68.0025 178.11 66.6689 173.064 66.9125C169.202 66.8559 165.401 67.8691 162.081 69.8396C160.205 70.8365 158.642 72.3316 157.564 74.1598C156.486 75.988 155.935 78.0782 155.972 80.1996C155.972 85.418 161.669 89.7209 173.064 93.1085C189.684 97.9322 200.322 101.846 204.977 104.85C216.339 112.085 222.019 122.873 222.019 137.213V137.213Z" fill="white"/>
</svg>
