<?xml version="1.0" encoding="UTF-8" standalone="no"?>
<!-- Created with Inkscape (http://www.inkscape.org/) -->

<svg
   xmlns:dc="http://purl.org/dc/elements/1.1/"
   xmlns:cc="http://creativecommons.org/ns#"
   xmlns:rdf="http://www.w3.org/1999/02/22-rdf-syntax-ns#"
   xmlns:svg="http://www.w3.org/2000/svg"
   xmlns="http://www.w3.org/2000/svg"
   xmlns:sodipodi="http://sodipodi.sourceforge.net/DTD/sodipodi-0.dtd"
   xmlns:inkscape="http://www.inkscape.org/namespaces/inkscape"
   width="210mm"
   height="297mm"
   viewBox="0 0 210 297"
   version="1.1"
   id="svg8"
   inkscape:version="0.92.1 r15371"
   sodipodi:docname="logo_svg_site_figma.svg">
  <defs
     id="defs2" />
  <sodipodi:namedview
     id="base"
     pagecolor="#ffffff"
     bordercolor="#666666"
     borderopacity="1.0"
     inkscape:pageopacity="0.0"
     inkscape:pageshadow="2"
     inkscape:zoom="0.64"
     inkscape:cx="360.85024"
     inkscape:cy="403.3131"
     inkscape:document-units="mm"
     inkscape:current-layer="layer1"
     showgrid="false"
     inkscape:window-width="1920"
     inkscape:window-height="1057"
     inkscape:window-x="-8"
     inkscape:window-y="-8"
     inkscape:window-maximized="1" />
  <metadata
     id="metadata5">
    <rdf:RDF>
      <cc:Work
         rdf:about="">
        <dc:format>image/svg+xml</dc:format>
        <dc:type
           rdf:resource="http://purl.org/dc/dcmitype/StillImage" />
        <dc:title></dc:title>
      </cc:Work>
    </rdf:RDF>
  </metadata>
  <g
     inkscape:label="Layer 1"
     inkscape:groupmode="layer"
     id="layer1">
    <path
       sodipodi:nodetypes="ccc"
       inkscape:connector-curvature="0"
       id="path4804-1-2-0-7-7-1-2"
       d="M 79.554727,79.060865 C 96.606324,80.795761 106.09135,73.745118 112.93785,62.581414 110.03408,47.959957 84.702667,33.000503 72.56466,26.512954"
       style="display:inline;opacity:0.96799999;fill:none;stroke:#000000;stroke-width:1.08346152px;stroke-linecap:butt;stroke-linejoin:miter;stroke-opacity:1"
       inkscape:export-filename="C:\Users\marcolan\g6406.png"
       inkscape:export-xdpi="247.23"
       inkscape:export-ydpi="247.23" />
    <ellipse
       ry="8.8044405"
       rx="8.7072124"
       cy="62.077862"
       cx="138.78738"
       id="path4812-0-9-5-9-5-9-3"
       style="display:inline;opacity:0.98999999;fill:none;fill-opacity:1;stroke:#2d0000;stroke-width:1.13430786;stroke-miterlimit:4;stroke-dasharray:none;stroke-dashoffset:0;stroke-opacity:1"
       inkscape:export-filename="C:\Users\marcolan\g6406.png"
       inkscape:export-xdpi="247.23"
       inkscape:export-ydpi="247.23" />
    <ellipse
       ry="8.8044405"
       rx="8.7072124"
       cy="61.252323"
       cx="100.42122"
       id="path4812-7-6-6-9-8-8-4-9"
       style="display:inline;opacity:0.98999999;fill:none;fill-opacity:1;stroke:#2d0000;stroke-width:1.13430786;stroke-miterlimit:4;stroke-dasharray:none;stroke-dashoffset:0;stroke-opacity:1"
       inkscape:export-filename="C:\Users\marcolan\g6406.png"
       inkscape:export-xdpi="247.23"
       inkscape:export-ydpi="247.23" />
    <path
       sodipodi:nodetypes="ccc"
       inkscape:connector-curvature="0"
       id="path4804-6-0-9-03-7-4-7-0"
       d="M 160.19651,80.487511 C 142.22429,82.222405 132.22719,75.171765 125.01087,64.008057 128.0715,49.386461 154.27575,40.518194 167.06914,34.030646"
       style="display:inline;opacity:0.96799999;fill:none;stroke:#000000;stroke-width:1.11232817px;stroke-linecap:butt;stroke-linejoin:miter;stroke-opacity:1"
       inkscape:export-filename="C:\Users\marcolan\g6406.png"
       inkscape:export-xdpi="247.23"
       inkscape:export-ydpi="247.23" />
    <ellipse
       ry="3.2315743"
       rx="3.1958876"
       cy="61.372334"
       cx="101.92255"
       id="path4812-7-9-2-78-9-6-8-3-2"
       style="display:inline;opacity:0.98999999;fill:none;fill-opacity:1;stroke:#2d0000;stroke-width:0.41633534;stroke-miterlimit:4;stroke-dasharray:none;stroke-dashoffset:0;stroke-opacity:1"
       inkscape:export-filename="C:\Users\marcolan\g6406.png"
       inkscape:export-xdpi="247.23"
       inkscape:export-ydpi="247.23" />
    <ellipse
       ry="3.2315743"
       rx="3.1958876"
       cy="62.442036"
       cx="137.80576"
       id="path4812-7-9-5-6-65-3-3-4-1-3"
       style="display:inline;opacity:0.98999999;fill:none;fill-opacity:1;stroke:#2d0000;stroke-width:0.41633534;stroke-miterlimit:4;stroke-dasharray:none;stroke-dashoffset:0;stroke-opacity:1"
       inkscape:export-filename="C:\Users\marcolan\g6406.png"
       inkscape:export-xdpi="247.23"
       inkscape:export-ydpi="247.23" />
    <path
       inkscape:connector-curvature="0"
       id="path5020-0-1-0-5-9-6-7"
       d="m 99.286429,69.367579 c -3.284556,-0.529381 -5.828631,-2.849327 -6.727349,-6.134536 -0.24193,-0.883952 -0.242295,-3.100203 0,-3.988121 1.000765,-3.680153 4.158298,-6.151393 7.85243,-6.146008 2.16072,0 3.99212,0.735774 5.59814,2.2392 1.11208,1.041051 2.09104,2.8693 2.37856,4.44228 0.15028,0.822754 0.12833,2.27334 -0.0481,3.140858 -0.51295,2.523795 -2.34645,4.803085 -4.70441,5.848102 -1.18118,0.523427 -3.1401,0.793003 -4.348267,0.598225 z m 3.820911,-4.724889 c 1.14317,-0.407694 1.99856,-1.464895 2.19134,-2.707807 0.47204,-3.044391 -2.81555,-5.136833 -5.344911,-3.401938 -0.609775,0.418319 -1.205781,1.279887 -1.373024,1.984925 -0.153122,0.645679 -0.07173,1.65245 0.182444,2.25039 0.240683,0.56692 0.871066,1.271389 1.438271,1.607404 0.8464,0.501613 1.9613,0.604033 2.9059,0.266885 z"
       style="display:inline;opacity:0.98999999;fill:#ffff00;fill-opacity:1;stroke:none;stroke-width:0.10127746;stroke-miterlimit:4;stroke-dasharray:none;stroke-dashoffset:0;stroke-opacity:1"
       inkscape:export-filename="C:\Users\marcolan\g6406.png"
       inkscape:export-xdpi="247.23"
       inkscape:export-ydpi="247.23" />
    <path
       inkscape:connector-curvature="0"
       id="path5022-2-6-1-6-4-2-0"
       d="m 137.15974,70.103637 c -2.55809,-0.600491 -4.57748,-2.216677 -5.66725,-4.535631 -0.52738,-1.122365 -0.68895,-1.793544 -0.75073,-3.11862 -0.11572,-2.481011 0.74548,-4.623175 2.53987,-6.317133 1.51492,-1.43047 3.06846,-2.099101 5.12869,-2.207752 4.75318,-0.250312 8.7074,3.767558 8.43644,8.572624 -0.0651,1.151686 -0.26069,1.982515 -0.69191,2.93673 -1.00369,2.221209 -2.9725,3.921257 -5.29134,4.569489 -0.7555,0.211211 -2.97556,0.271274 -3.70377,0.100576 z m 1.83102,-4.390856 c 1.14308,-0.40812 1.99847,-1.464895 2.19125,-2.707949 0.47209,-3.044108 -2.81554,-5.136693 -5.34485,-3.401796 -0.60983,0.418177 -1.20578,1.279745 -1.37303,1.984782 -0.15316,0.645822 -0.0717,1.65245 0.18237,2.25039 0.24071,0.56692 0.87117,1.271532 1.43822,1.607545 0.84656,0.501616 1.96131,0.604033 2.90606,0.267168 z"
       style="display:inline;opacity:0.98999999;fill:#ffff00;fill-opacity:1;stroke:none;stroke-width:0.10127746;stroke-miterlimit:4;stroke-dasharray:none;stroke-dashoffset:0;stroke-opacity:1"
       inkscape:export-filename="C:\Users\marcolan\g6406.png"
       inkscape:export-xdpi="247.23"
       inkscape:export-ydpi="247.23" />
    <path
       inkscape:connector-curvature="0"
       id="path5114-0-6-1-7-1-8"
       d="m 117.20322,85.77436 c 0,-0.64398 -0.38393,-2.80017 -0.85309,-4.791752 -1.07726,-4.572037 -1.1789,-7.320786 -0.32215,-8.711026 0.32656,-0.529661 0.94937,-1.174776 1.38444,-1.433726 0.75677,-0.450335 0.83708,-0.446085 1.85541,0.09774 2.22868,1.190074 3.59451,3.163948 3.83763,5.545658 0.15035,1.473251 0.13729,1.506257 -1.74754,4.346517 -1.04457,1.574112 -2.40663,3.594449 -3.02694,4.489593 l -1.12779,1.627658 z"
       style="display:inline;opacity:0.98999999;fill:#00486b;fill-opacity:0.99215686;stroke:none;stroke-width:0.2864559;stroke-miterlimit:4;stroke-dasharray:none;stroke-dashoffset:0;stroke-opacity:1"
       inkscape:export-filename="C:\Users\marcolan\g6406.png"
       inkscape:export-xdpi="247.23"
       inkscape:export-ydpi="247.23" />
    <path
       inkscape:connector-curvature="0"
       id="path5116-5-0-1-5-7-5"
       d="m 80.578916,77.705473 c 0.217064,-1.095589 0.942319,-5.508826 2.05527,-12.508756 1.241671,-7.809365 2.411124,-11.507653 4.821714,-15.247729 1.880124,-2.917463 4.225306,-4.792176 7.737472,-6.18539 l 1.854446,-0.735776 1.865749,1.543514 c 6.362533,5.263475 11.141233,11.304374 12.757063,16.12658 l 0.59328,1.770452 -1.40775,2.057736 c -1.78339,2.606807 -5.508,6.598893 -7.80217,8.362405 -0.9727,0.747815 -2.99298,1.961832 -4.489665,2.69789 -4.404555,2.16653 -8.423066,2.998777 -14.52331,3.007841 l -3.639304,0.01416 z m 23.835604,-7.899037 c 1.87421,-0.980985 2.88605,-1.856722 3.77232,-3.265234 3.36605,-5.348753 1.15155,-12.130103 -4.65366,-14.250169 -1.71217,-0.625423 -4.651553,-0.553744 -6.520205,0.158941 -2.016715,0.768925 -3.977028,2.573516 -4.988803,4.592861 -0.727064,1.450872 -0.806077,1.866924 -0.802225,4.223134 0.0042,2.208887 0.107453,2.827086 0.66964,3.989538 0.944123,1.951633 3.108891,4.055406 4.913516,4.775176 2.069616,0.825445 5.815057,0.715092 7.609417,-0.224105 z"
       style="display:inline;opacity:0.98999999;fill:#a3bbc7;fill-opacity:0.98431373;stroke:none;stroke-width:0.2864559;stroke-miterlimit:4;stroke-dasharray:none;stroke-dashoffset:0;stroke-opacity:1"
       inkscape:export-filename="C:\Users\marcolan\g6406.png"
       inkscape:export-xdpi="247.23"
       inkscape:export-ydpi="247.23" />
    <path
       inkscape:connector-curvature="0"
       id="path5118-2-8-2-8-1-5"
       d="m 148.63087,79.573953 c -4.55966,-0.72671 -8.96769,-2.397432 -12.40648,-4.701797 -2.6589,-1.781926 -6.39622,-5.446781 -8.67653,-8.508312 l -1.83862,-2.468687 0.50069,-1.471552 c 1.57864,-4.639325 6.52838,-9.737627 13.75761,-14.170131 3.72941,-2.286798 7.56599,-4.321302 8.14873,-4.321302 0.71022,0 4.35339,1.873437 5.62331,2.891539 1.83909,1.474527 2.38318,2.559917 2.78184,5.549768 0.19834,1.486001 0.67988,4.896011 1.07045,7.577754 0.60222,4.135022 1.20433,13.50391 1.23832,19.267583 l 0.004,0.7566 -4.01349,-0.02833 c -2.20743,-0.01701 -4.99306,-0.183309 -6.19031,-0.374407 z m -5.8501,-8.941927 c 1.8741,-0.981131 2.88595,-1.856865 3.77224,-3.265379 3.36602,-5.348894 1.15152,-12.130244 -4.6536,-14.250168 -1.71211,-0.625424 -4.65164,-0.553744 -6.52025,0.158941 -2.01684,0.768924 -3.97703,2.573657 -4.98876,4.592862 -0.72706,1.450869 -0.80609,1.866921 -0.80231,4.223274 0.004,2.208744 0.10745,2.826943 0.66973,3.989538 0.94412,1.951633 3.1088,4.055266 4.91351,4.775034 2.06953,0.825447 5.81506,0.715094 7.60944,-0.223962 z"
       style="display:inline;opacity:0.98999999;fill:#a4bbc7;fill-opacity:0.97647059;stroke:none;stroke-width:0.2864559;stroke-miterlimit:4;stroke-dasharray:none;stroke-dashoffset:0;stroke-opacity:1"
       inkscape:export-filename="C:\Users\marcolan\g6406.png"
       inkscape:export-xdpi="247.23"
       inkscape:export-ydpi="247.23" />
    <path
       sodipodi:nodetypes="ccccccsscsccccccccc"
       inkscape:connector-curvature="0"
       id="path5120-3-9-6-8-6-4"
       d="m 30.677933,226.69314 c 0,-0.11333 2.156137,-2.55879 4.788232,-5.43389 15.6938,-17.14341 30.582366,-34.91593 44.369788,-52.96425 18.428586,-24.12378 29.090177,-42.3598 29.616737,-50.74019 -1.12812,-12.41838 -19.222793,-17.17004 -26.718449,-15.61279 -4.660241,0.65447 -10.815614,6.33456 -15.362981,10.73448 -1.775121,1.71747 -3.227552,3.00586 -3.227552,2.86307 0,-0.30882 4.026147,-6.84736 7.674137,-12.46314 3.473402,-5.34734 5.975069,-9.753923 6.610649,-11.644501 0.286676,-0.852926 0.656637,-1.550881 0.822076,-1.550881 0.165351,0 1.395185,0.377237 2.732654,0.838194 23.439256,8.078095 38.354396,7.903856 64.470856,-0.753197 3.81179,-1.263597 10.0851,-3.50634 12.17652,-4.353176 0.44113,-0.178631 0.47597,0.117575 0.47378,4.032459 -0.008,12.337212 -2.01914,28.970782 -5.14848,42.558272 -10.32782,44.84266 -28.90726,68.00373 -65.328319,81.43809 -10.641071,3.92508 -23.700283,7.07954 -47.436723,11.45864 -10.180958,1.87839 -10.517142,1.92911 -10.512925,1.59352 z"
       style="display:inline;opacity:0.98999999;fill:#00486b;fill-opacity:1;stroke:none;stroke-width:0.2864559;stroke-miterlimit:4;stroke-dasharray:none;stroke-dashoffset:0;stroke-opacity:1"
       inkscape:export-filename="C:\Users\marcolan\g6406.png"
       inkscape:export-xdpi="247.23"
       inkscape:export-ydpi="247.23" />
    <path
       sodipodi:nodetypes="ccc"
       inkscape:connector-curvature="0"
       id="path5131-1-0-1-9-9-6-4-8"
       d="m 93.206275,34.140573 c 8.638895,4.805775 17.944855,9.057665 28.570495,11.280716 13.25478,-1.869471 20.64828,-3.884993 31.97181,-8.666827"
       style="display:inline;opacity:0.96799999;fill:none;stroke:#000000;stroke-width:1.08346152px;stroke-linecap:butt;stroke-linejoin:miter;stroke-opacity:1"
       inkscape:export-filename="C:\Users\marcolan\g6406.png"
       inkscape:export-xdpi="247.23"
       inkscape:export-ydpi="247.23" />
    <path
       sodipodi:nodetypes="ccsccccsc"
       inkscape:connector-curvature="0"
       id="path5112-9-4-0-6-6-5"
       d="m 27.820916,227.24334 c 0.10339,-0.30258 0.957322,-2.59958 1.897398,-5.10439 3.580786,-9.54115 6.484299,-19.94854 11.010723,-39.46813 6.632631,-28.60147 7.800711,-36.51255 14.636437,-50.58607 1.41651,-4.33405 6.675964,-11.21938 9.763209,-14.34225 5.023787,-5.08186 10.405433,-9.48844 13.496378,-10.9379 9.361784,-3.35504 23.406409,1.13356 24.810689,11.2691 2.72513,8.34937 -14.311745,34.5656 -48.633273,75.40923 -11.294247,13.44044 -27.483183,35.22729 -26.981561,33.76041 z"
       style="display:inline;opacity:0.98999999;fill:#a4bbc7;fill-opacity:0.97647059;stroke:none;stroke-width:0.2864559;stroke-miterlimit:4;stroke-dasharray:none;stroke-dashoffset:0;stroke-opacity:1"
       inkscape:export-filename="C:\Users\marcolan\g6406.png"
       inkscape:export-xdpi="247.23"
       inkscape:export-ydpi="247.23" />
    <path
       style="display:inline;opacity:0.98999999;fill:#000000;fill-opacity:0.99215686;stroke:none;stroke-width:0.58815086;stroke-miterlimit:4;stroke-dasharray:none;stroke-dashoffset:0;stroke-opacity:1"
       d="m 100.79801,64.065573 c -0.73055,-0.334884 -1.144731,-0.713677 -1.451172,-1.327344 -0.560183,-1.121513 -0.428228,-2.28538 0.365409,-3.222879 1.201813,-1.419706 3.222873,-1.416589 4.427953,0.01416 0.98156,1.159475 0.89782,2.95656 -0.18526,3.977354 -0.46575,0.438999 -1.43453,0.839044 -2.03171,0.839044 -0.29123,0 -0.7976,-0.123243 -1.12522,-0.273119 z"
       id="path6130-2-9"
       inkscape:connector-curvature="0"
       inkscape:export-filename="C:\Users\marcolan\g6406.png"
       inkscape:export-xdpi="247.23"
       inkscape:export-ydpi="247.23" />
    <path
       style="display:inline;opacity:0.98999999;fill:#000000;fill-opacity:0.99215686;stroke:none;stroke-width:0.58815086;stroke-miterlimit:4;stroke-dasharray:none;stroke-dashoffset:0;stroke-opacity:1"
       d="m 136.59154,65.093873 c -1.06092,-0.499488 -1.66382,-1.438688 -1.67368,-2.607514 -0.014,-1.648058 1.26327,-2.960669 2.88061,-2.960669 2.18551,0 3.56788,2.298272 2.57642,4.28348 -0.30646,0.613664 -0.7206,0.99246 -1.4512,1.327343 -0.78596,0.360379 -1.50428,0.347205 -2.33215,-0.0425 z"
       id="path6132-1-9"
       inkscape:connector-curvature="0"
       inkscape:export-filename="C:\Users\marcolan\g6406.png"
       inkscape:export-xdpi="247.23"
       inkscape:export-ydpi="247.23" />
    <ellipse
       style="display:inline;opacity:0.98999999;fill:#ffffff;fill-opacity:0.99215686;stroke:none;stroke-width:2.0884068;stroke-miterlimit:4;stroke-dasharray:none;stroke-dashoffset:0;stroke-opacity:1"
       id="path6134-4-8"
       cx="103.59412"
       cy="60.684788"
       rx="0.82738078"
       ry="0.73622537"
       inkscape:export-filename="C:\Users\marcolan\g6406.png"
       inkscape:export-xdpi="247.23"
       inkscape:export-ydpi="247.23" />
    <ellipse
       style="display:inline;opacity:0.98999999;fill:#ffffff;fill-opacity:0.99215686;stroke:none;stroke-width:2.0884068;stroke-miterlimit:4;stroke-dasharray:none;stroke-dashoffset:0;stroke-opacity:1"
       id="path6134-3-9-1"
       cx="139.50247"
       cy="61.621689"
       rx="0.82738078"
       ry="0.73622537"
       inkscape:export-filename="C:\Users\marcolan\g6406.png"
       inkscape:export-xdpi="247.23"
       inkscape:export-ydpi="247.23" />
    <path
       style="display:inline;opacity:0.99299999;fill:none;fill-opacity:1;stroke:none;stroke-width:0.00315673;stroke-miterlimit:4;stroke-dasharray:none;stroke-dashoffset:0;stroke-opacity:1"
       d="m 137.60646,65.454762 c -0.23487,-0.02381 -0.34338,-0.04101 -0.51081,-0.08228 -0.78875,-0.193675 -1.47246,-0.713846 -1.87828,-1.428486 -0.42216,-0.743744 -0.51091,-1.633273 -0.24452,-2.451364 0.18089,-0.555625 0.52702,-1.05463 0.98549,-1.420548 0.79116,-0.631561 1.85192,-0.81624 2.8045,-0.488157 0.34883,0.120386 0.6639,0.298186 0.94642,0.534723 0.1207,0.101071 0.31858,0.301625 0.40833,0.413809 0.6232,0.779198 0.82825,1.801018 0.55303,2.7559 -0.1501,0.520435 -0.45839,1.021821 -0.84666,1.376627 -0.47536,0.434446 -1.01804,0.687387 -1.66209,0.774171 -0.0915,0.01323 -0.47956,0.02381 -0.55541,0.01588 z m 0.39256,-0.06191 c 0.35525,-0.03016 0.6818,-0.129117 1.07325,-0.325173 0.18161,-0.09102 0.28372,-0.149225 0.4176,-0.238655 0.38541,-0.257439 0.65905,-0.567795 0.87212,-0.988747 0.18629,-0.3683 0.29442,-0.737394 0.3311,-1.1303 0.013,-0.137848 0.006,-0.519378 -0.0124,-0.645319 -0.0928,-0.65114 -0.36573,-1.216025 -0.80664,-1.669256 -0.47402,-0.487363 -1.0411,-0.766763 -1.73307,-0.854075 -0.14526,-0.01852 -0.50387,-0.02117 -0.64728,-0.0053 -0.81086,0.09287 -1.50886,0.490273 -1.99387,1.135327 -0.20018,0.266435 -0.37251,0.61251 -0.46503,0.934508 -0.12912,0.449527 -0.15431,0.910432 -0.0757,1.385623 0.17111,1.034521 0.85146,1.824831 1.91511,2.224617 0.39097,0.146844 0.76859,0.205846 1.1248,0.175948 z"
       id="path5390"
       inkscape:connector-curvature="0"
       inkscape:export-filename="C:\Users\marcolan\g6406.png"
       inkscape:export-xdpi="247.23"
       inkscape:export-ydpi="247.23" />
  </g>
</svg>
