<svg width="443" height="572" viewBox="0 0 443 572" fill="none" xmlns="http://www.w3.org/2000/svg">
<g filter="url(#filter0_d)">
<path d="M165.888 148.07C218.907 152.926 248.399 133.193 269.686 101.948C260.658 61.0256 181.895 19.1572 144.154 1" stroke="black" stroke-width="0.380223"/>
<path opacity="0.99" d="M350.063 125.182C365.015 125.182 377.136 114.149 377.136 100.54C377.136 86.9309 365.015 75.8984 350.063 75.8984C335.11 75.8984 322.989 86.9309 322.989 100.54C322.989 114.149 335.11 125.182 350.063 125.182Z" stroke="#2D0000" stroke-width="0.398067"/>
<path opacity="0.99" d="M230.773 122.872C245.725 122.872 257.846 111.839 257.846 98.2301C257.846 84.6209 245.725 73.5884 230.773 73.5884C215.82 73.5884 203.699 84.6209 203.699 98.2301C203.699 111.839 215.82 122.872 230.773 122.872Z" stroke="#2D0000" stroke-width="0.398067"/>
<path d="M416.631 152.063C360.75 156.918 329.666 137.185 307.229 105.94C316.745 65.0173 398.222 40.1969 438 22.0396" stroke="black" stroke-width="0.390353"/>
<path opacity="0.99" d="M235.441 107.61C240.929 107.61 245.378 103.561 245.378 98.566C245.378 93.5708 240.929 89.5215 235.441 89.5215C229.953 89.5215 225.504 93.5708 225.504 98.566C225.504 103.561 229.953 107.61 235.441 107.61Z" stroke="#2D0000" stroke-width="0.146106"/>
<path opacity="0.99" d="M347.009 110.602C352.497 110.602 356.946 106.553 356.946 101.558C356.946 96.5625 352.497 92.5132 347.009 92.5132C341.521 92.5132 337.072 96.5625 337.072 101.558C337.072 106.553 341.521 110.602 347.009 110.602Z" stroke="#2D0000" stroke-width="0.146106"/>
<path opacity="0.99" d="M227.242 120.942C217.029 119.46 209.119 112.967 206.324 103.772C205.572 101.298 205.571 95.0956 206.324 92.6106C209.436 82.3106 219.254 75.3941 230.74 75.4092C237.458 75.4092 243.152 77.4685 248.146 81.6762C251.604 84.5899 254.648 89.7067 255.542 94.1092C256.009 96.4119 255.941 100.472 255.392 102.9C253.797 109.963 248.096 116.343 240.765 119.267C237.092 120.732 231.001 121.487 227.245 120.942H227.242ZM239.122 107.718C242.676 106.577 245.336 103.618 245.935 100.139C247.403 91.6185 237.181 85.7623 229.317 90.6178C227.421 91.7886 225.567 94.2 225.047 96.1732C224.571 97.9804 224.824 100.798 225.615 102.472C226.363 104.058 228.323 106.03 230.087 106.97C232.718 108.374 236.185 108.661 239.122 107.717L239.122 107.718Z" fill="#FFFF00" stroke="#2D0000" stroke-width="0.0355417"/>
<path opacity="0.99" d="M345.002 123.001C337.048 121.32 330.769 116.797 327.381 110.307C325.741 107.166 325.239 105.287 325.047 101.578C324.687 94.6345 327.365 88.6391 332.944 83.8981C337.654 79.8945 342.485 78.0232 348.891 77.7191C363.67 77.0182 375.965 88.2637 375.122 101.712C374.919 104.935 374.312 107.261 372.971 109.931C369.85 116.148 363.728 120.906 356.518 122.72C354.169 123.311 347.266 123.48 345.002 123.002V123.001ZM350.695 110.712C354.25 109.57 356.909 106.612 357.509 103.133C358.976 94.6131 348.754 88.7565 340.89 93.6121C338.994 94.7824 337.141 97.1938 336.621 99.167C336.144 100.975 336.398 103.792 337.188 105.465C337.936 107.052 339.896 109.024 341.66 109.965C344.292 111.368 347.758 111.655 350.695 110.712L350.695 110.712Z" fill="#FFFF00" stroke="#2D0000" stroke-width="0.0355417"/>
<path opacity="0.99" d="M282.953 166.86C282.953 165.057 281.759 159.022 280.301 153.448C276.951 140.652 276.635 132.959 279.299 129.068C280.314 127.586 282.251 125.78 283.604 125.055C285.956 123.795 286.206 123.807 289.373 125.329C296.302 128.66 300.549 134.184 301.305 140.85C301.772 144.973 301.732 145.066 295.871 153.015C292.623 157.421 288.388 163.075 286.46 165.58L282.953 170.136L282.953 166.86Z" fill="#00486B" fill-opacity="0.992157" stroke="#CB952F" stroke-width="0.100527"/>
<path opacity="0.99" d="M169.075 144.278C169.75 141.212 172.005 128.86 175.466 109.269C179.327 87.4124 182.963 77.0617 190.458 66.594C196.304 58.4287 203.596 53.1818 214.516 49.2824L220.282 47.2231L226.083 51.5431C245.866 66.2745 260.725 83.1816 265.749 96.678L267.593 101.633L263.216 107.392C257.671 114.688 246.09 125.861 238.957 130.797C235.933 132.89 229.651 136.288 224.997 138.348C211.302 144.411 198.808 146.741 179.84 146.766L168.524 146.806L169.075 144.278ZM243.187 122.171C249.015 119.425 252.161 116.974 254.917 113.032C265.383 98.062 258.497 79.0825 240.447 73.1489C235.123 71.3985 225.984 71.5991 220.174 73.594C213.903 75.746 207.808 80.7967 204.662 86.4484C202.401 90.5091 202.156 91.6736 202.168 98.2681C202.181 104.45 202.502 106.18 204.25 109.434C207.185 114.896 213.916 120.784 219.527 122.799C225.962 125.109 237.608 124.8 243.187 122.171V122.171Z" fill="#A3BBC7" fill-opacity="0.984314" stroke="black" stroke-width="0.100527"/>
<path opacity="0.99" d="M380.667 149.506C366.49 147.472 352.784 142.796 342.092 136.347C333.825 131.36 322.204 121.103 315.114 112.534L309.397 105.625L310.954 101.506C315.863 88.5215 331.253 74.2525 353.731 61.8468C365.326 55.4466 377.255 49.7524 379.067 49.7524C381.276 49.7524 392.603 54.9958 396.552 57.8452C402.27 61.9722 403.962 65.0099 405.201 73.3779C405.818 77.5369 407.315 87.0808 408.53 94.5864C410.402 106.159 412.274 132.381 412.38 148.512L412.389 150.63L399.91 150.55C393.046 150.502 384.385 150.036 380.662 149.502L380.667 149.506ZM362.478 124.48C368.305 121.734 371.451 119.283 374.207 115.341C384.673 100.37 377.787 81.3906 359.737 75.4574C354.414 73.7069 345.274 73.9076 339.464 75.9025C333.193 78.0545 327.098 83.1056 323.952 88.7569C321.692 92.8176 321.446 93.982 321.458 100.577C321.471 106.759 321.792 108.489 323.54 111.743C326.476 117.205 333.206 123.093 338.818 125.107C345.253 127.417 356.898 127.109 362.478 124.48V124.48Z" fill="#A4BBC7" fill-opacity="0.976471" stroke="black" stroke-width="0.100527"/>
<path opacity="0.99" d="M13.92 561.261C13.92 560.945 20.6241 554.1 28.8081 546.053C77.6047 498.072 123.898 448.331 166.767 397.818C224.067 330.3 257.217 279.262 258.854 255.807C255.346 221.05 199.085 207.751 175.778 212.11C161.288 213.942 142.15 229.839 128.01 242.153C122.491 246.96 117.975 250.566 117.975 250.166C117.975 249.302 130.494 231.002 141.836 215.285C152.636 200.319 160.414 187.986 162.391 182.694C163.282 180.307 164.432 178.354 164.947 178.354C165.461 178.354 169.285 179.409 173.443 180.7C246.323 203.308 292.699 202.821 373.902 178.592C385.754 175.055 405.26 168.778 411.763 166.408C413.134 165.908 413.243 166.737 413.236 177.694C413.209 212.223 406.958 258.777 397.228 296.805C365.116 422.31 307.346 487.133 194.103 524.733C161.016 535.719 120.411 544.547 46.6078 556.803C14.9522 562.061 13.9069 562.203 13.92 561.263V561.261Z" fill="#00486B" stroke="black" stroke-width="0.100527"/>
<path d="M208.338 22.3491C235.199 35.7995 264.134 47.6996 297.172 53.9214C338.385 48.6892 361.374 43.0481 396.582 29.6648" stroke="black" stroke-width="0.380223"/>
<path opacity="0.99" d="M5.03539 562.802C5.35681 561.955 8.01199 555.527 10.9349 548.516C22.0687 521.812 31.0966 492.684 45.1706 438.053C65.7934 358.004 69.4253 335.862 90.6795 296.474C95.0839 284.344 111.437 265.073 121.036 256.333C136.657 242.11 153.39 229.777 163 225.72C192.109 216.33 235.778 228.893 240.144 257.26C248.617 280.628 195.645 354.001 88.929 468.314C53.8119 505.931 3.4757 566.908 5.03539 562.802Z" fill="#A4BBC7" fill-opacity="0.976471" stroke="black" stroke-width="0.100527"/>
<path opacity="0.99" d="M231.943 106.102C229.671 105.164 228.384 104.104 227.431 102.387C225.689 99.2476 226.099 95.9902 228.567 93.3663C232.304 89.3929 238.588 89.4017 242.335 93.4064C245.387 96.6515 245.126 101.681 241.759 104.538C240.311 105.767 237.298 106.886 235.442 106.886C234.536 106.886 232.962 106.542 231.943 106.122L231.943 106.102Z" fill="black" fill-opacity="0.992157"/>
<path opacity="0.99" d="M343.237 108.979C339.939 107.581 338.064 104.952 338.034 101.681C337.99 97.0683 341.961 93.3945 346.99 93.3945C353.786 93.3945 358.084 99.827 355.001 105.383C354.048 107.101 352.76 108.161 350.489 109.098C348.045 110.107 345.812 110.07 343.237 108.979V108.979Z" fill="black" fill-opacity="0.992157"/>
<path opacity="0.99" d="M240.639 98.7017C242.06 98.7017 243.212 97.7792 243.212 96.6411C243.212 95.5031 242.06 94.5806 240.639 94.5806C239.218 94.5806 238.066 95.5031 238.066 96.6411C238.066 97.7792 239.218 98.7017 240.639 98.7017Z" fill="white" fill-opacity="0.992157"/>
<path opacity="0.99" d="M352.285 101.322C353.706 101.322 354.858 100.4 354.858 99.2617C354.858 98.1237 353.706 97.2012 352.285 97.2012C350.865 97.2012 349.713 98.1237 349.713 99.2617C349.713 100.4 350.865 101.322 352.285 101.322Z" fill="white" fill-opacity="0.992157"/>
</g>
<defs>
<filter id="filter0_d" x="0.950195" y="0.828613" width="441.131" height="570.221" filterUnits="userSpaceOnUse" color-interpolation-filters="sRGB">
<feFlood flood-opacity="0" result="BackgroundImageFix"/>
<feColorMatrix in="SourceAlpha" type="matrix" values="0 0 0 0 0 0 0 0 0 0 0 0 0 0 0 0 0 0 127 0"/>
<feOffset dy="4"/>
<feGaussianBlur stdDeviation="2"/>
<feColorMatrix type="matrix" values="0 0 0 0 0 0 0 0 0 0 0 0 0 0 0 0 0 0 0.25 0"/>
<feBlend mode="normal" in2="BackgroundImageFix" result="effect1_dropShadow"/>
<feBlend mode="normal" in="SourceGraphic" in2="effect1_dropShadow" result="shape"/>
</filter>
</defs>
</svg>
