<svg width="220" height="198" viewBox="0 0 220 198" fill="none" xmlns="http://www.w3.org/2000/svg">
<path d="M60.8676 70.5467C60.721 70.2534 60.721 69.8134 60.5743 69.5201C59.5476 64.9734 58.6676 60.2801 58.2276 55.5867C57.9343 52.0667 57.7876 48.5467 58.081 45.0267C58.3743 40.7734 59.1076 36.6667 61.0143 32.8534C62.481 29.9201 64.3876 27.2801 67.1743 25.6667C69.961 24.0534 73.041 23.4667 76.2676 23.6134C81.5476 23.9067 86.3876 25.6667 91.081 28.1601C96.6543 31.0934 101.641 34.7601 106.334 38.8667L109.854 41.9467L110.148 42.24C111.028 41.36 111.908 40.6267 112.788 39.7467C117.921 35.0534 123.494 30.9467 129.654 27.7201C133.174 25.9601 136.694 24.4934 140.508 23.9067C143.881 23.32 147.254 23.3201 150.628 24.64C153.414 25.6667 155.468 27.5734 157.228 30.0667C159.281 33.1467 160.454 36.6667 161.188 40.1867C162.214 45.1734 162.214 50.1601 161.921 55.1467C161.628 60.2801 160.748 65.2667 159.574 70.2534C159.428 70.6934 159.574 70.8401 160.014 70.9867C164.854 72.4534 169.548 74.0667 174.094 76.2667C178.934 78.6134 183.628 81.2534 187.588 84.9201C189.934 86.9734 191.988 89.4667 193.454 92.2534C195.948 97.0934 195.654 101.787 193.014 106.48C191.401 109.413 189.054 111.907 186.414 114.107C182.601 117.333 178.201 119.973 173.654 122.173C169.254 124.227 164.854 125.987 160.161 127.307C160.014 127.307 159.868 127.453 159.721 127.453L160.161 129.653C161.188 134.2 161.921 138.6 162.214 143.293C162.508 147.547 162.361 151.8 161.774 156.053C161.188 159.867 160.161 163.68 158.108 167.053C155.908 170.72 152.828 173.213 148.721 174.24C146.081 174.827 143.588 174.827 140.948 174.387C135.814 173.507 131.121 171.453 126.721 168.813C121.001 165.44 115.868 161.187 111.028 156.64L110.588 156.2C110.294 156.493 110.001 156.64 109.708 156.933C105.161 161.187 100.321 165 95.041 168.227C90.9343 170.573 86.681 172.627 82.1343 173.8C78.761 174.68 75.5343 174.973 72.0143 174.24C67.761 173.36 64.681 171.013 62.481 167.347C60.5743 164.413 59.5476 161.04 58.961 157.667C58.081 152.827 58.081 147.987 58.521 143.147C58.961 138.16 59.841 133.173 61.0143 128.187V127.893C60.8676 127.893 60.721 127.747 60.5743 127.747C53.9743 125.84 47.521 123.2 41.6543 119.68C37.6943 117.333 34.0276 114.693 30.9476 111.173C28.601 108.533 26.6943 105.453 25.8143 101.933C24.9343 98.2667 25.6676 94.8934 27.4276 91.6667C29.041 88.5867 31.3876 86.0934 34.1743 83.7467C38.1343 80.3734 42.681 77.8801 47.3743 75.6801C51.7743 73.6267 56.1743 72.1601 60.721 70.8401C60.4276 70.6934 60.5743 70.6934 60.8676 70.5467V70.5467ZM109.708 126.427V126.28H117.188L125.108 125.84C125.401 125.84 125.548 125.693 125.694 125.4L127.454 122.76C132.294 115.133 136.841 107.36 140.801 99.2934C140.948 99 141.094 98.8534 140.801 98.56C136.254 89.6134 131.268 80.8134 125.694 72.6001C125.548 72.3067 125.401 72.3067 125.108 72.3067C121.734 72.1601 118.508 71.8667 115.134 71.8667C108.388 71.7201 101.641 71.8667 94.8943 72.3067C94.601 72.3067 94.4543 72.4534 94.161 72.7467C88.5876 80.9601 83.601 89.6134 79.201 98.56C79.0543 99 78.9076 99.2934 79.201 99.8801C83.4543 108.68 88.2943 117.04 93.721 125.107C94.3076 125.84 94.8943 126.28 95.7743 126.28C100.468 126.133 105.161 126.28 109.708 126.427ZM62.7743 77.5867C62.6276 77.5867 62.481 77.5867 62.3343 77.7334C58.081 78.9067 53.9743 80.3734 50.0143 82.2801C45.9076 84.1867 42.0943 86.3867 38.5743 89.1734C36.521 90.9334 34.6143 92.6934 33.441 95.1867C32.561 96.8001 32.121 98.5601 32.561 100.467C33.001 102.373 34.0276 104.133 35.3476 105.6C37.9876 108.827 41.361 111.32 45.0276 113.373C50.161 116.307 55.441 118.507 61.161 120.267L62.921 120.707C62.921 120.56 63.0676 120.413 63.0676 120.267C65.2676 113.08 68.0543 106.187 71.1343 99.4401C71.281 99.0001 71.281 98.7067 71.1343 98.4134C68.3476 92.2534 65.8543 86.0934 63.801 79.6401C63.2143 79.0534 63.0676 78.3201 62.7743 77.5867V77.5867ZM67.761 129.507C67.761 129.653 67.6143 129.947 67.6143 130.093C66.5876 134.347 65.8543 138.747 65.4143 143.147C64.9743 147.4 64.9743 151.653 65.7076 155.907C66.1476 158.547 66.881 161.04 68.201 163.387C69.521 165.587 71.281 166.907 73.7743 167.2C75.5343 167.347 77.2943 167.2 79.0543 166.907C82.8676 166.173 86.241 164.56 89.6143 162.8C94.8943 159.867 99.5876 156.2 103.988 152.093C104.428 151.8 104.721 151.36 105.161 151.067L101.641 147.107C97.8276 142.707 94.161 138.16 90.7876 133.32C90.641 133.173 90.3476 132.88 90.201 132.88C88.001 132.587 85.801 132.44 83.601 132.293C79.3476 131.853 74.9476 131.12 70.6943 130.24C69.8143 129.947 68.7876 129.8 67.761 129.507V129.507ZM152.681 129.213C152.534 129.213 152.388 129.213 152.241 129.36C148.721 130.093 145.201 130.827 141.534 131.413C137.721 132 133.908 132.293 129.948 132.88C129.801 132.88 129.508 133.027 129.361 133.173C125.108 139.187 120.561 145.053 115.574 150.627C115.428 150.773 115.428 150.92 115.281 151.067C115.428 151.213 115.574 151.213 115.574 151.36C118.214 153.853 121.001 156.2 123.788 158.4C127.601 161.333 131.708 163.827 136.254 165.587C138.748 166.613 141.388 167.347 144.174 167.347C147.548 167.493 150.041 166.173 151.654 163.24C152.241 162.067 152.828 160.893 153.268 159.573C154.441 155.907 154.881 152.24 154.881 148.427C154.881 143.147 154.294 137.867 153.268 132.587C153.121 131.413 152.828 130.387 152.681 129.213V129.213ZM105.014 47.3734L104.721 47.0801C101.201 43.7067 97.5343 40.6267 93.4276 37.9867C89.9076 35.6401 86.3876 33.5867 82.4276 32.2667C80.081 31.3867 77.5876 30.8001 74.9476 30.9467C73.1876 30.9467 71.4276 31.3867 70.1076 32.5601C68.9343 33.5867 68.201 34.9067 67.4676 36.2267C66.001 39.6001 65.561 43.12 65.2676 46.64C65.121 49.8667 65.2676 53.0934 65.561 56.4667C66.001 60.5734 66.7343 64.5334 67.761 68.4934C67.9076 68.7867 67.9076 68.9334 68.201 68.7867C70.9876 68.2001 73.7743 67.6134 76.561 67.1734C81.1076 66.4401 85.5076 66.0001 90.0543 65.4134C90.3476 65.4134 90.641 65.2667 90.7876 64.9734C93.721 60.8667 96.801 56.7601 100.174 52.9467C101.788 51.0401 103.401 49.2801 105.014 47.3734V47.3734ZM152.241 68.9334C152.241 68.7867 152.241 68.7867 152.241 68.9334C152.388 68.6401 152.388 68.4934 152.388 68.3467C153.708 62.9201 154.588 57.3467 154.734 51.7734C154.881 48.1067 154.588 44.4401 153.854 40.9201C153.414 38.5734 152.534 36.2267 151.214 34.1734C150.188 32.5601 148.868 31.3867 146.961 30.9467C145.054 30.5067 143.001 30.6534 141.094 31.0934C137.721 31.8267 134.494 33.2934 131.414 34.9067C125.548 38.2801 120.268 42.3867 115.428 47.0801L115.134 47.3734C115.281 47.5201 115.428 47.6667 115.428 47.8134C117.334 50.0134 119.241 52.0667 121.148 54.4134C123.934 57.9334 126.574 61.4534 129.214 64.9734C129.361 65.1201 129.508 65.2667 129.801 65.2667C131.854 65.5601 134.054 65.7067 136.108 66.0001C139.921 66.5867 143.881 67.1734 147.694 67.9067C149.161 68.2001 150.628 68.6401 152.241 68.9334V68.9334ZM157.374 77.7334C157.374 77.8801 157.228 78.0267 157.228 78.1734C155.028 85.0667 152.388 91.8134 149.308 98.4134C149.161 98.8534 149.161 99.1467 149.308 99.4401C152.388 106.04 155.321 112.933 157.521 119.973C157.668 120.413 157.814 120.413 158.254 120.267C163.388 118.653 168.521 116.747 173.361 114.107C177.028 112.2 180.401 109.853 183.334 107.067C184.801 105.6 186.121 103.987 187.001 102.08C188.028 99.8801 188.028 97.8267 186.854 95.6267C186.121 94.3067 185.241 92.9867 184.214 91.9601C181.574 89.0267 178.348 86.8267 174.828 84.9201C169.988 82.1334 164.854 80.0801 159.574 78.4667C158.841 78.1734 158.108 77.8801 157.374 77.7334V77.7334ZM144.908 107.36C141.828 113.373 138.454 119.24 134.788 124.96C136.548 124.96 149.601 122.76 150.628 122.173C150.188 120.12 145.788 108.68 144.908 107.36V107.36ZM85.361 125.107C81.6943 119.387 78.321 113.52 75.241 107.507C73.1876 112.493 71.281 117.48 69.6676 122.467C74.9476 123.64 80.081 124.52 85.361 125.107ZM100.174 133.467C103.401 137.72 106.774 141.68 110.294 145.64C113.814 141.68 117.041 137.72 120.268 133.467H100.174ZM100.028 64.6801C106.774 64.3867 113.374 64.3867 120.121 64.6801C119.094 62.9201 111.174 53.3867 110.148 52.6534C106.481 56.4667 103.254 60.4267 100.028 64.6801V64.6801ZM144.908 90.3467C146.961 85.6534 148.721 80.8134 150.334 75.9734C148.721 75.3867 136.108 73.1867 135.081 73.3334C138.308 78.9067 141.534 84.6267 144.908 90.3467ZM85.2143 73.1867C83.601 73.1867 71.1343 75.2401 69.961 75.8267C70.1076 77.2934 74.801 89.7601 75.3876 90.3467C78.321 84.4801 81.6943 78.7601 85.2143 73.1867V73.1867Z" fill="white"/>
<path d="M94.8945 98.8533C94.8945 90.4933 101.788 83.7466 110.148 83.7466C118.508 83.7466 125.255 90.4933 125.255 98.8533C125.255 107.213 118.361 114.107 110.001 113.96C101.641 113.96 94.8945 107.213 94.8945 98.8533Z" fill="white"/>
</svg>
